<?xml version="1.0" encoding="iso-8859-1"?>
<!-- Generator: Adobe Illustrator 19.0.0, SVG Export Plug-In . SVG Version: 6.00 Build 0)  -->
<svg xmlns="http://www.w3.org/2000/svg" xmlns:xlink="http://www.w3.org/1999/xlink" version="1.1" id="Layer_1" x="0px" y="0px" viewBox="0 0 512 512" style="enable-background:new 0 0 512 512;" xml:space="preserve" width="512px" height="512px">
<g>
	<g>
		<path d="M512,256c0-9.22-7.475-16.696-16.696-16.696h-26.833l32.994-32.995c6.52-6.52,6.52-17.091,0-23.611    c-6.519-6.52-17.091-6.52-23.611,0l-56.605,56.606h-83.45c-2.187-10.73-6.445-20.713-12.326-29.523l59.52-59.52h80.259    c9.22,0,16.696-7.475,16.696-16.696c0-9.22-7.475-16.696-16.696-16.696h-46.868l18.556-18.556c6.52-6.52,6.52-17.091,0-23.611    c-6.519-6.52-17.091-6.52-23.611,0L395.13,92.901V46.748c0-9.22-7.475-16.696-16.696-16.696c-9.22,0-16.696,7.475-16.696,16.696    v79.545l-59.955,59.955c-8.706-5.733-18.533-9.895-29.088-12.046V90.036l56.248-56.248c6.52-6.52,6.52-17.091,0-23.611    c-6.519-6.52-17.091-6.52-23.611,0l-32.637,32.637V16.696C272.696,7.475,265.22,0,256,0c-9.22,0-16.696,7.475-16.696,16.696    v26.277l-32.796-32.795c-6.519-6.52-17.091-6.52-23.611,0s-6.52,17.091,0,23.611l56.407,56.406v84.007    c-10.594,2.159-20.456,6.342-29.185,12.109l-59.858-59.859V46.748c0-9.22-7.475-16.696-16.696-16.696    c-9.22,0-16.696,7.475-16.696,16.696v46.311L98.512,74.703c-6.519-6.52-17.091-6.52-23.611,0c-6.52,6.52-6.52,17.091,0,23.611    l18.557,18.556h-46.71c-9.22,0-16.696,7.475-16.696,16.696c0,9.22,7.475,16.696,16.696,16.696h80.101l59.617,59.617    c-5.849,8.789-10.085,18.736-12.263,29.427h-83.61l-56.605-56.605c-6.519-6.52-17.091-6.52-23.611,0    c-6.52,6.52-6.52,17.091,0,23.611l32.994,32.994H16.696C7.475,239.304,0,246.78,0,256c0,9.22,7.475,16.696,16.696,16.696h26.119    l-32.439,32.439c-6.52,6.52-6.52,17.091,0,23.611c3.26,3.26,7.533,4.891,11.805,4.891s8.546-1.629,11.805-4.891l56.051-56.05    h84.166c2.151,10.555,6.313,20.382,12.046,29.088l-58.843,58.842H46.748c-9.22,0-16.696,7.475-16.696,16.696    c0,9.22,7.475,16.696,16.696,16.696h47.266l-19.112,19.112c-6.52,6.52-6.52,17.091,0,23.611c3.26,3.26,7.533,4.891,11.805,4.891    s8.546-1.629,11.805-4.891l18.357-18.356v45.755c0,9.22,7.475,16.696,16.696,16.696c9.22,0,16.696-7.475,16.696-16.696v-79.146    l59.52-59.52c8.812,5.881,18.794,10.139,29.523,12.326v83.45l-56.407,56.407c-6.52,6.52-6.52,17.091,0,23.611    c6.519,6.52,17.091,6.52,23.611,0l32.796-32.796v26.833c0,9.22,7.475,16.696,16.696,16.696c9.22,0,16.696-7.475,16.696-16.696    v-26.675l32.637,32.637c3.26,3.26,7.533,4.891,11.805,4.891c4.272,0,8.546-1.629,11.805-4.891c6.52-6.52,6.52-17.091,0-23.611    l-56.246-56.248v-83.61c10.691-2.179,20.639-6.416,29.427-12.263l59.617,59.617v78.988c0,9.22,7.475,16.696,16.696,16.696    c9.22,0,16.696-7.475,16.696-16.696v-45.597l18.198,18.198c3.26,3.26,7.533,4.891,11.805,4.891s8.546-1.629,11.805-4.891    c6.52-6.52,6.52-17.091,0-23.611l-19.111-19.112h47.425c9.22,0,16.696-7.475,16.696-16.696c0-9.22-7.475-16.696-16.696-16.696    h-80.816l-58.745-58.745c5.767-8.73,9.95-18.591,12.109-29.185h84.007l56.048,56.048c3.26,3.26,7.533,4.891,11.805,4.891    s8.546-1.629,11.805-4.891c6.52-6.52,6.52-17.091,0-23.611l-32.437-32.437h26.277C504.525,272.696,512,265.22,512,256z     M256,306.087c-27.631,0-50.087-22.539-50.087-50.087c0-27.618,22.469-50.087,50.087-50.087c27.618,0,50.087,22.469,50.087,50.087    C306.087,283.306,283.837,306.087,256,306.087z" fill="#FFFFFF"/>
	</g>
</g>
<g>
</g>
<g>
</g>
<g>
</g>
<g>
</g>
<g>
</g>
<g>
</g>
<g>
</g>
<g>
</g>
<g>
</g>
<g>
</g>
<g>
</g>
<g>
</g>
<g>
</g>
<g>
</g>
<g>
</g>
</svg>
